<svg width="414" height="405" viewBox="0 0 414 405" fill="none" xmlns="http://www.w3.org/2000/svg">
<path d="M0 95H414V379C414 393.359 402.359 405 388 405H26C11.6406 405 0 393.359 0 379L0 95Z" fill="#F3CA40"/>
<g clip-path="url(#clip0)">
<path d="M-1 87.9351L12.8 76.9351C26.6 65.9351 54.2 43.9351 81.8 34.757C109.4 25.7163 137 29.1538 164.6 27.4351C192.2 25.7163 219.8 18.1538 247.4 16.4351C275 14.7163 302.6 18.1538 330.2 25.6132C357.8 32.9351 385.4 43.9351 399.2 49.4351L413 54.9351V98.9351H399.2C385.4 98.9351 357.8 98.9351 330.2 98.9351C302.6 98.9351 275 98.9351 247.4 98.9351C219.8 98.9351 192.2 98.9351 164.6 98.9351C137 98.9351 109.4 98.9351 81.8 98.9351C54.2 98.9351 26.6 98.9351 12.8 98.9351H-1V87.9351Z" fill="#37323E" fill-opacity="0.06"/>
<path d="M0 99L13.8 88C27.6 77 55.2 55 82.8 45.8219C110.4 36.7813 138 40.2188 165.6 38.5C193.2 36.7812 220.8 29.2188 248.4 27.5C276 25.7813 303.6 29.2187 331.2 36.6781C358.8 44 386.4 55 400.2 60.5L414 66V110H400.2C386.4 110 358.8 110 331.2 110C303.6 110 276 110 248.4 110C220.8 110 193.2 110 165.6 110C138 110 110.4 110 82.8 110C55.2 110 27.6 110 13.8 110H0V99Z" fill="#F3CA40"/>
</g>
<defs>
<clipPath id="clip0">
<rect width="414" height="110" fill="white" transform="translate(1)"/>
</clipPath>
</defs>
</svg>
