<svg width="333" height="230" viewBox="0 0 333 230" fill="none" xmlns="http://www.w3.org/2000/svg">
<g opacity="0.5">
<path d="M325.113 89.6463C311.732 36.5499 300.704 1.5841 246.434 0.0467881C217.744 -0.765941 187.554 8.83632 165.573 42.4382C126.28 102.505 167.987 144.013 197.065 163.737C211.113 173.285 223.771 184.766 234.672 197.847C254.313 221.367 280.113 243.641 325.113 197.847C313.128 156.784 334.026 125.014 325.113 89.6463Z" fill="#F2F2F2"/>
<path d="M51.0836 133.263C50.723 132.725 50.3686 132.172 50.0301 131.619L50.5769 131.278C50.9109 131.823 51.2606 132.369 51.6163 132.9L51.0836 133.263Z" fill="#3F3D56"/>
<path d="M48.0917 128.142C47.4954 126.962 46.9412 125.742 46.4446 124.516L47.0395 124.271C47.5297 125.479 48.0763 126.683 48.6646 127.848L48.0917 128.142ZM45.1011 120.765C44.7067 119.502 44.36 118.207 44.0704 116.915L44.6976 116.771C44.9831 118.046 45.3251 119.324 45.7142 120.57L45.1011 120.765ZM43.3595 112.991C43.1773 111.682 43.0467 110.347 42.9711 109.023L43.613 108.985C43.6874 110.292 43.8164 111.609 43.9961 112.901L43.3595 112.991ZM43.5468 105.05L42.9042 105.035C42.9351 103.709 43.0205 102.37 43.1579 101.056L43.7973 101.124C43.6617 102.421 43.5774 103.742 43.5468 105.05ZM44.3656 97.2327L43.734 97.1117C43.9789 95.8107 44.2807 94.5041 44.6312 93.2283L45.2508 93.4016C44.9049 94.6603 44.6072 95.9493 44.3656 97.2327ZM46.4478 89.6576L45.8447 89.433C46.2993 88.1903 46.8114 86.9511 47.3669 85.7498L47.9495 86.0242C47.4014 87.2092 46.8962 88.4317 46.4478 89.6576ZM134.492 87.6522C133.99 86.4496 133.431 85.2523 132.83 84.0936L133.4 83.793C134.008 84.9676 134.575 86.1811 135.085 87.4001L134.492 87.6522ZM49.7437 82.5289L49.1855 82.207C49.8366 81.0577 50.5437 79.921 51.2871 78.8281L51.817 79.1953C51.0836 80.2736 50.3859 81.3951 49.7437 82.5289ZM130.882 80.6852C130.19 79.5817 129.443 78.4933 128.663 77.4503L129.176 77.0594C129.967 78.1166 130.724 79.2198 131.425 80.3382L130.882 80.6852ZM54.1549 76.0451L53.6564 75.6352C54.4857 74.6083 55.3672 73.6038 56.2767 72.6492L56.7401 73.0987C55.8428 74.0407 54.9729 75.0319 54.1549 76.0451ZM126.188 74.4096C125.326 73.4342 124.413 72.4832 123.475 71.583L123.918 71.1129C124.869 72.0253 125.794 72.9891 126.668 73.9775L126.188 74.4096ZM59.5554 70.376L59.13 69.8898C60.1136 69.0136 61.1456 68.1676 62.1972 67.3755L62.5817 67.8954C61.5441 68.677 60.526 69.5116 59.5554 70.376ZM120.542 68.99C119.533 68.1698 118.479 67.3819 117.408 66.6482L117.769 66.1113C118.854 66.8551 119.923 67.6535 120.945 68.4847L120.542 68.99ZM65.7987 65.674L65.4578 65.124C66.5709 64.4214 67.7258 63.7576 68.8905 63.151L69.1853 63.7275C68.0362 64.3259 66.8969 64.9809 65.7987 65.674ZM114.093 64.5741C112.964 63.9309 111.796 63.3282 110.621 62.7829L110.89 62.1934C112.08 62.7463 113.265 63.3572 114.409 64.009L114.093 64.5741ZM72.719 62.07L72.4722 61.471C73.6838 60.9632 74.9308 60.5005 76.1787 60.096L76.3752 60.7137C75.1442 61.1127 73.914 61.569 72.719 62.07ZM107.013 61.2874C105.796 60.8417 104.546 60.4419 103.295 60.0993L103.464 59.4734C104.731 59.8206 105.999 60.2257 107.233 60.6776L107.013 61.2874ZM80.133 59.6673L79.988 59.0353C81.2647 58.7366 82.5712 58.4881 83.8709 58.2964L83.9638 58.9383C82.6815 59.1275 81.3927 59.3727 80.133 59.6673V59.6673ZM99.4926 59.2266C98.2219 58.9903 96.9231 58.8044 95.6323 58.6742L95.6963 58.0286C97.0045 58.1607 98.3211 58.349 99.609 58.5886L99.4926 59.2266ZM87.8411 58.5305L87.8006 57.883C89.1081 57.7997 90.4413 57.7701 91.7514 57.794L91.7398 58.4428C90.446 58.4188 89.1315 58.4485 87.8411 58.5305Z" fill="#3F3D56"/>
<path d="M136.429 93.2344C136.256 92.617 136.069 91.9947 135.872 91.3848L136.483 91.1836C136.683 91.802 136.873 92.4328 137.047 93.0586L136.429 93.2344Z" fill="#3F3D56"/>
<path d="M132.508 56.9036H131.865C131.865 56.2544 131.877 55.5957 131.899 54.946L132.542 54.9685C132.52 55.6109 132.508 56.2619 132.508 56.9036Z" fill="#3F3D56"/>
<path d="M132.814 51.0673L132.175 50.9986C132.313 49.6921 132.499 48.3749 132.729 47.0837L133.362 47.1984C133.134 48.4744 132.95 49.7762 132.814 51.0673ZM134.183 43.3792L133.56 43.2189C133.882 41.9456 134.254 40.669 134.665 39.4244L135.275 39.6297C134.869 40.8597 134.501 42.1211 134.183 43.3792ZM236.711 36.5346C236.231 35.3307 235.7 34.1295 235.135 32.9647L235.713 32.6796C236.285 33.8583 236.821 35.0738 237.308 36.2923L236.711 36.5346ZM136.634 35.966L136.04 35.7167C136.54 34.5044 137.091 33.2941 137.677 32.1195L138.251 32.4113C137.672 33.5721 137.128 34.7679 136.634 35.966ZM233.309 29.5178C232.663 28.3968 231.968 27.2844 231.243 26.2118L231.774 25.8462C232.508 26.9317 233.211 28.0572 233.865 29.1915L233.309 29.5178ZM140.117 28.9836L139.565 28.651C140.231 27.5245 140.948 26.4066 141.694 25.3285L142.221 25.7C141.484 26.7655 140.775 27.8703 140.117 28.9836H140.117ZM228.948 23.063C228.148 22.0447 227.303 21.0436 226.436 20.0872L226.91 19.6491C227.787 20.6169 228.643 21.6298 229.452 22.6601L228.948 23.063ZM144.553 22.5771L144.053 22.1684C144.873 21.1478 145.74 20.1446 146.629 19.1866L147.098 19.6301C146.219 20.577 145.363 21.5685 144.553 22.5771ZM223.72 17.2994C222.786 16.4064 221.808 15.5366 220.814 14.7137L221.222 14.2123C222.228 15.0446 223.217 15.9249 224.162 16.8284L223.72 17.2994ZM149.845 16.874L149.408 16.3979C150.363 15.506 151.361 14.6372 152.377 13.816L152.779 14.3222C151.775 15.1339 150.788 15.9924 149.845 16.874V16.874ZM217.733 12.3436C216.683 11.5938 215.593 10.8731 214.492 10.2016L214.825 9.64659C215.938 10.3261 217.042 11.0553 218.104 11.814L217.733 12.3436ZM155.885 11.9882L155.519 11.4544C156.59 10.7087 157.701 9.99267 158.821 9.32586L159.148 9.88465C158.04 10.5437 156.942 11.2514 155.885 11.9882V11.9882ZM211.108 8.2995C209.962 7.70871 208.781 7.15308 207.597 6.64767L207.847 6.05023C209.045 6.5615 210.241 7.12394 211.4 7.72169L211.108 8.2995ZM162.551 8.0228L162.265 7.44184C163.429 6.85833 164.63 6.31015 165.833 5.81266L166.077 6.41295C164.888 6.90457 163.702 7.44625 162.551 8.02279V8.0228ZM203.976 5.2556C202.76 4.83777 201.512 4.45922 200.266 4.13056L200.428 3.50303C201.689 3.83549 202.953 4.21863 204.183 4.64137L203.976 5.2556ZM169.707 5.06363L169.507 4.44718C170.743 4.03854 172.01 3.66997 173.273 3.35176L173.429 3.98119C172.18 4.29559 170.928 4.65973 169.707 5.06362L169.707 5.06363ZM196.485 3.27922C195.221 3.04243 193.932 2.84904 192.654 2.70427L192.726 2.05963C194.019 2.20614 195.324 2.40175 196.603 2.64124L196.485 3.27922ZM177.217 3.17247L177.107 2.53321C178.388 2.30814 179.694 2.12709 180.99 1.99485L181.054 2.64044C179.774 2.77095 178.483 2.94992 177.217 3.17246L177.217 3.17247ZM188.792 2.40682C187.505 2.35408 186.196 2.34711 184.919 2.3856L184.899 1.73716C186.192 1.6982 187.516 1.70501 188.819 1.7587L188.792 2.40682Z" fill="#3F3D56"/>
<path d="M238.592 42.1015C238.42 41.4841 238.234 40.8608 238.04 40.2487L238.652 40.051C238.849 40.6703 239.037 41.301 239.211 41.9257L238.592 42.1015Z" fill="#3F3D56"/>
<path d="M50.7076 141.315C56.6215 141.315 61.4157 140.953 61.4157 140.505C61.4157 140.057 56.6215 139.695 50.7076 139.695C44.7937 139.695 39.9996 140.057 39.9996 140.505C39.9996 140.953 44.7937 141.315 50.7076 141.315Z" fill="#6C63FF"/>
<path d="M136.104 102.144C142.018 102.144 146.812 101.781 146.812 101.334C146.812 100.886 142.018 100.523 136.104 100.523C130.19 100.523 125.396 100.886 125.396 101.334C125.396 101.781 130.19 102.144 136.104 102.144Z" fill="#6C63FF"/>
<path d="M241.578 61.3521C247.492 61.3521 252.286 60.9892 252.286 60.5416C252.286 60.094 247.492 59.7312 241.578 59.7312C235.665 59.7312 230.87 60.094 230.87 60.5416C230.87 60.9892 235.665 61.3521 241.578 61.3521Z" fill="#6C63FF"/>
<path d="M237.336 57.8809L205.137 90.374L205.591 90.8327L237.79 58.3396L237.336 57.8809Z" fill="#3F3D56"/>
<path d="M195.802 94.5258H141.726V95.1746H195.802V94.5258Z" fill="#3F3D56"/>
<path d="M131.856 98.9486L101.611 129.47L102.066 129.928L132.311 99.4073L131.856 98.9486Z" fill="#3F3D56"/>
<path d="M92.469 133.697H56.3293V134.346H92.469V133.697Z" fill="#3F3D56"/>
<path d="M46.5052 137.804L10.5929 174.044L11.0474 174.503L46.9598 138.262L46.5052 137.804Z" fill="#3F3D56"/>
<path d="M50.7076 140.019C49.5322 140.019 48.3831 139.667 47.4057 139.008C46.4283 138.349 45.6665 137.413 45.2167 136.317C44.7668 135.221 44.6491 134.015 44.8784 132.852C45.1077 131.688 45.6737 130.619 46.5049 129.781C47.3361 128.942 48.3951 128.371 49.5479 128.139C50.7008 127.908 51.8958 128.027 52.9818 128.48C54.0678 128.934 54.996 129.703 55.6491 130.689C56.3021 131.676 56.6507 132.835 56.6507 134.021C56.6489 135.612 56.0222 137.136 54.9081 138.26C53.7939 139.385 52.2833 140.017 50.7076 140.019ZM50.7076 128.673C49.6593 128.673 48.6345 128.986 47.7629 129.574C46.8912 130.162 46.2118 130.997 45.8106 131.974C45.4094 132.952 45.3044 134.027 45.5089 135.065C45.7134 136.102 46.2182 137.055 46.9595 137.804C47.7008 138.552 48.6452 139.061 49.6734 139.267C50.7015 139.474 51.7673 139.368 52.7358 138.963C53.7043 138.558 54.5321 137.873 55.1145 136.993C55.697 136.113 56.0078 135.079 56.0078 134.021C56.0062 132.603 55.4473 131.244 54.4537 130.241C53.46 129.238 52.1128 128.674 50.7076 128.673Z" fill="#3F3D56"/>
<path d="M98.0906 140.019C96.9151 140.019 95.766 139.667 94.7887 139.008C93.8113 138.349 93.0496 137.413 92.5997 136.317C92.1499 135.221 92.0322 134.015 92.2615 132.851C92.4909 131.688 93.0569 130.619 93.8881 129.781C94.7192 128.942 95.7782 128.371 96.9311 128.139C98.084 127.908 99.279 128.027 100.365 128.48C101.451 128.934 102.379 129.703 103.032 130.689C103.685 131.676 104.034 132.835 104.034 134.021C104.032 135.612 103.405 137.136 102.291 138.26C101.177 139.385 99.6663 140.017 98.0906 140.019ZM98.0906 128.673C97.0423 128.673 96.0175 128.986 95.1459 129.574C94.2742 130.162 93.5949 130.997 93.1937 131.975C92.7925 132.952 92.6876 134.027 92.8921 135.065C93.0966 136.103 93.6014 137.056 94.3427 137.804C95.0839 138.552 96.0284 139.061 97.0565 139.267C98.0847 139.474 99.1504 139.368 100.119 138.963C101.087 138.558 101.915 137.873 102.498 136.993C103.08 136.113 103.391 135.079 103.391 134.021C103.389 132.603 102.83 131.244 101.837 130.241C100.843 129.238 99.4958 128.674 98.0906 128.673Z" fill="#3F3D56"/>
<path d="M136.104 100.848C134.929 100.848 133.78 100.496 132.802 99.8369C131.825 99.1779 131.063 98.2412 130.614 97.1453C130.164 96.0495 130.046 94.8436 130.275 93.6802C130.505 92.5168 131.071 91.4482 131.902 90.6094C132.733 89.7707 133.792 89.1995 134.945 88.968C136.098 88.7366 137.293 88.8554 138.379 89.3093C139.465 89.7632 140.393 90.5319 141.046 91.5182C141.699 92.5045 142.047 93.664 142.047 94.8502C142.046 96.4403 141.419 97.9647 140.305 99.0891C139.191 100.213 137.68 100.846 136.104 100.848ZM136.104 89.5016C135.056 89.5016 134.031 89.8153 133.16 90.403C132.288 90.9908 131.609 91.8261 131.207 92.8035C130.806 93.7808 130.701 94.8563 130.906 95.8938C131.11 96.9314 131.615 97.8844 132.356 98.6324C133.098 99.3804 134.042 99.8898 135.07 100.096C136.098 100.303 137.164 100.197 138.133 99.7918C139.101 99.3869 139.929 98.7014 140.511 97.8218C141.094 96.9422 141.405 95.9081 141.405 94.8502C141.403 93.4321 140.844 92.0726 139.85 91.0699C138.857 90.0671 137.509 89.5031 136.104 89.5016V89.5016Z" fill="#3F3D56"/>
<path d="M201.423 100.848C200.248 100.848 199.099 100.496 198.121 99.8369C197.144 99.1779 196.382 98.2412 195.932 97.1453C195.483 96.0495 195.365 94.8436 195.594 93.6802C195.824 92.5168 196.39 91.4482 197.221 90.6094C198.052 89.7707 199.111 89.1995 200.264 88.968C201.417 88.7366 202.612 88.8554 203.698 89.3093C204.784 89.7632 205.712 90.5319 206.365 91.5182C207.018 92.5045 207.366 93.664 207.366 94.8502C207.365 96.4403 206.738 97.9647 205.624 99.0891C204.51 100.213 202.999 100.846 201.423 100.848ZM201.423 89.5016C200.375 89.5016 199.35 89.8153 198.479 90.403C197.607 90.9908 196.928 91.8261 196.526 92.8035C196.125 93.7808 196.02 94.8563 196.225 95.8938C196.429 96.9314 196.934 97.8844 197.675 98.6324C198.417 99.3804 199.361 99.8898 200.389 100.096C201.417 100.303 202.483 100.197 203.452 99.7918C204.42 99.3869 205.248 98.7014 205.83 97.8218C206.413 96.9422 206.724 95.9081 206.724 94.8502C206.722 93.4321 206.163 92.0725 205.169 91.0698C204.176 90.0671 202.828 89.5031 201.423 89.5016V89.5016Z" fill="#3F3D56"/>
<path d="M241.578 60.0556C240.403 60.0555 239.254 59.7038 238.277 59.0448C237.299 58.3858 236.537 57.4491 236.088 56.3532C235.638 55.2573 235.52 54.0514 235.75 52.888C235.979 51.7247 236.545 50.656 237.376 49.8173C238.207 48.9785 239.266 48.4073 240.419 48.1759C241.572 47.9445 242.767 48.0632 243.853 48.5172C244.939 48.9711 245.867 49.7398 246.52 50.726C247.173 51.7123 247.522 52.8718 247.522 54.058C247.52 55.6481 246.893 57.1726 245.779 58.2969C244.665 59.4213 243.154 60.0538 241.578 60.0556ZM241.578 48.7094C240.53 48.7094 239.505 49.0231 238.634 49.6109C237.762 50.1986 237.083 51.034 236.682 52.0113C236.28 52.9887 236.176 54.0641 236.38 55.1017C236.585 56.1392 237.089 57.0923 237.831 57.8403C238.572 58.5883 239.516 59.0977 240.545 59.304C241.573 59.5104 242.638 59.4045 243.607 58.9996C244.575 58.5948 245.403 57.9092 245.986 57.0296C246.568 56.15 246.879 55.1159 246.879 54.058C246.877 52.64 246.318 51.2805 245.325 50.2777C244.331 49.275 242.984 48.711 241.578 48.7094V48.7094Z" fill="#3F3D56"/>
<path d="M6.80465 184.323C5.62918 184.323 4.4801 183.971 3.50272 183.312C2.52534 182.653 1.76356 181.717 1.3137 180.621C0.863848 179.525 0.746129 178.319 0.975433 177.156C1.20474 175.992 1.77076 174.924 2.60193 174.085C3.4331 173.246 4.49209 172.675 5.64497 172.443C6.79785 172.212 7.99284 172.331 9.07884 172.785C10.1648 173.238 11.093 174.007 11.7461 174.994C12.3992 175.98 12.7477 177.139 12.7477 178.326C12.746 179.916 12.1192 181.44 11.0051 182.564C9.89093 183.689 8.38032 184.321 6.80465 184.323ZM6.80465 172.977C5.75633 172.977 4.73155 173.29 3.85989 173.878C2.98823 174.466 2.30885 175.301 1.90765 176.279C1.50646 177.256 1.40147 178.331 1.60597 179.369C1.81046 180.407 2.31526 181.36 3.05652 182.108C3.79778 182.856 4.74221 183.365 5.77039 183.572C6.79856 183.778 7.86429 183.672 8.83281 183.267C9.80133 182.862 10.6291 182.177 11.2116 181.297C11.794 180.418 12.1048 179.383 12.1048 178.326C12.1032 176.908 11.5443 175.548 10.5507 174.545C9.55706 173.543 8.20987 172.978 6.80465 172.977Z" fill="#3F3D56"/>
<path d="M50.7076 98.6323C49.3014 98.6323 47.909 98.9118 46.6098 99.4548C45.3107 99.9979 44.1302 100.794 43.1359 101.797C42.1416 102.801 41.3528 103.992 40.8147 105.303C40.2766 106.614 39.9996 108.019 39.9996 109.438C39.9996 115.406 50.7076 135.102 50.7076 135.102C50.7076 135.102 61.4157 115.406 61.4157 109.438C61.4157 108.019 61.1387 106.614 60.6006 105.303C60.0624 103.992 59.2737 102.801 58.2794 101.797C57.285 100.794 56.1046 99.9979 54.8054 99.4548C53.5063 98.9118 52.1138 98.6323 50.7076 98.6323ZM50.7076 115.111C49.5958 115.111 48.5089 114.779 47.5844 114.155C46.6599 113.532 45.9393 112.646 45.5138 111.609C45.0884 110.573 44.977 109.432 45.1939 108.331C45.4109 107.231 45.9463 106.22 46.7325 105.427C47.5187 104.633 48.5204 104.093 49.6109 103.874C50.7014 103.655 51.8317 103.768 52.859 104.197C53.8862 104.626 54.7642 105.353 55.3819 106.286C55.9996 107.219 56.3293 108.316 56.3293 109.438C56.3293 110.943 55.7371 112.386 54.6828 113.45C53.6285 114.514 52.1986 115.111 50.7076 115.111Z" fill="#577590"/>
<path d="M136.104 58.1103C133.264 58.1103 130.541 59.2488 128.532 61.2753C126.524 63.3018 125.396 66.0503 125.396 68.9162C125.396 74.8841 136.104 94.5801 136.104 94.5801C136.104 94.5801 146.812 74.8841 146.812 68.9162C146.812 67.4971 146.535 66.092 145.997 64.7809C145.459 63.4699 144.67 62.2787 143.676 61.2752C142.682 60.2718 141.501 59.4759 140.202 58.9328C138.903 58.3898 137.51 58.1103 136.104 58.1103ZM136.104 74.5892C134.992 74.5892 133.905 74.2565 132.981 73.6332C132.056 73.0098 131.336 72.1238 130.91 71.0872C130.485 70.0505 130.374 68.9099 130.591 67.8094C130.807 66.7089 131.343 65.6981 132.129 64.9047C132.915 64.1113 133.917 63.571 135.007 63.3521C136.098 63.1332 137.228 63.2455 138.256 63.6749C139.283 64.1043 140.161 64.8314 140.778 65.7644C141.396 66.6973 141.726 67.7941 141.726 68.9162C141.726 70.4208 141.134 71.8637 140.079 72.9276C139.025 73.9915 137.595 74.5892 136.104 74.5892Z" fill="#577590"/>
<path d="M320.836 23.4954C318.57 30.267 315.094 36.437 308.012 36.437C300.929 36.437 295.586 30.6315 295.187 23.4954C294.677 14.3769 300.765 10.516 308.012 10.5538C316.572 10.5984 323.526 15.4591 320.836 23.4954Z" fill="#2F2E41"/>
<path d="M320.499 22.4737H295.187V54.8277H320.499V22.4737Z" fill="#2F2E41"/>
<path d="M321.242 46.5776H323.395C323.395 46.5776 328.657 53.3367 326.265 62.5097C323.873 71.6828 325.787 73.3726 325.787 73.3726C325.787 73.3726 328.901 83.3062 325.552 98.2728C322.203 113.239 328.657 117.307 328.657 117.307L322.677 105.237L319.328 73.3726L321.242 46.5776Z" fill="#575A89"/>
<path opacity="0.1" d="M321.242 47.3717H323.395C323.395 47.3717 328.657 54.1308 326.265 63.3038C323.873 72.4769 325.787 74.1666 325.787 74.1666C325.787 74.1666 328.901 84.1003 325.552 99.0668C322.203 114.033 328.657 118.101 328.657 118.101L322.677 106.031L319.328 74.1666L321.242 47.3717Z" fill="black"/>
<path d="M313.707 34.8699C313.707 34.8699 311.793 42.5946 312.75 42.5946C313.707 42.5946 317.056 46.6983 317.056 46.6983L319.209 54.6644L317.534 60.4579L311.793 59.2509L304.617 51.2848L302.464 49.1123L300.55 42.1118C300.55 42.1118 302.942 39.215 301.268 36.801C299.593 34.3871 313.707 34.8699 313.707 34.8699Z" fill="#FBBEBE"/>
<path opacity="0.1" d="M313.707 34.8699C313.707 34.8699 311.793 42.5946 312.75 42.5946C313.707 42.5946 317.056 46.6983 317.056 46.6983L319.209 54.6644L317.534 60.4579L311.793 59.2509L304.617 51.2848L302.464 49.1123L300.55 42.1118C300.55 42.1118 302.942 39.215 301.268 36.801C299.593 34.3871 313.707 34.8699 313.707 34.8699Z" fill="black"/>
<path d="M255.818 56.3542L250.555 47.6639C250.555 47.6639 244.874 34.9799 240.808 39.5664C236.741 44.153 246.967 53.4574 246.967 53.4574L252.23 60.4579L255.818 56.3542Z" fill="#FBBEBE"/>
<path d="M325.667 131.911L321.84 160.154C321.84 160.154 322.318 162.327 317.534 170.293C312.75 178.259 299.832 195.64 299.832 195.64L296.005 188.398C296.005 188.398 300.55 165.465 308.444 160.637L307.487 125.876L325.667 131.911Z" fill="#FBBEBE"/>
<path opacity="0.1" d="M325.667 131.911L321.84 160.154C321.84 160.154 322.318 162.327 317.534 170.293C312.75 178.259 299.832 195.64 299.832 195.64L296.005 188.398C296.005 188.398 300.55 165.465 308.444 160.637L307.487 125.876L325.667 131.911Z" fill="black"/>
<path d="M296.005 185.501L301.268 195.64C301.268 195.64 296.962 207.951 298.636 209.158C300.311 210.365 302.464 221.228 297.919 220.021C293.374 218.814 289.786 213.986 289.786 213.262C289.786 212.537 292.417 202.399 290.982 199.985C289.546 197.571 288.59 196.847 288.59 196.847L285.001 202.882L283.805 202.157L289.786 192.019C289.786 192.019 290.503 190.088 293.374 188.881L296.005 185.501Z" fill="#2F2E41"/>
<path opacity="0.1" d="M296.005 185.501L301.268 195.64C301.268 195.64 296.962 207.951 298.636 209.158C300.311 210.365 302.464 221.228 297.919 220.021C293.374 218.814 289.786 213.986 289.786 213.262C289.786 212.537 292.417 202.399 290.982 199.985C289.546 197.571 288.59 196.847 288.59 196.847L285.001 202.882L283.805 202.157L289.786 192.019C289.786 192.019 290.503 190.088 293.374 188.881L296.005 185.501Z" fill="black"/>
<path d="M307.543 127.904C307.543 127.904 309.401 154.602 305.334 161.603V196.364L299.833 197.088C299.833 197.088 288.722 178.685 292.788 160.58C296.855 142.475 288.59 125.876 288.59 125.876L307.543 127.904Z" fill="#FBBEBE"/>
<path d="M306.172 40.7841C311.72 40.7841 316.218 36.2449 316.218 30.6455C316.218 25.046 311.72 20.5068 306.172 20.5068C300.623 20.5068 296.125 25.046 296.125 30.6455C296.125 36.2449 300.623 40.7841 306.172 40.7841Z" fill="#FBBEBE"/>
<path d="M316.338 57.3198L306.291 44.5258L300.55 40.6634L298.158 43.8016L291.46 45.7327C291.46 45.7327 287.154 46.6983 282.609 52.009C278.064 57.3198 269.931 60.4579 269.931 60.4579L263.233 59.2509C263.233 59.2509 255.339 55.63 255.339 54.6644C255.339 53.6988 248.402 61.1821 250.077 64.0789C251.751 66.9756 255.339 70.5965 257.253 72.5277C259.167 74.4589 259.884 80.011 271.606 78.3212C283.327 76.6315 287.633 70.8379 287.633 70.8379C287.633 70.8379 289.786 81.9422 296.005 84.1147C302.225 86.2873 322.558 87.7357 322.558 87.7357L326.863 73.2519C326.863 73.2519 331.648 66.9756 325.189 57.8026C325.189 57.8026 325.065 52.6723 324.371 49.2585C324.1 47.9307 323.744 46.8625 323.275 46.4569C321.601 45.0086 312.75 42.5946 312.75 42.5946C312.75 42.5946 314.185 47.4225 314.903 47.6639C315.62 47.9053 317.295 56.1128 316.338 57.3198Z" fill="#F2AA46"/>
<path d="M284.164 129.376C296.211 128.532 303.224 130.523 306.353 132.041C306.935 132.307 307.483 132.643 307.985 133.041C308.214 133.236 308.324 133.388 308.324 133.48C308.324 134.204 324.83 135.653 330.81 134.204C336.791 132.756 326.744 101.616 324.112 98.9606C321.481 96.3052 322.9 86.5866 322.9 86.5866C322.9 86.5866 317.654 85.4424 316.218 85.9252C314.783 86.408 307.368 85.201 304.736 83.7526C302.105 82.3043 298.756 83.2698 296.603 82.787C295.641 82.5722 295.156 82.9343 294.914 83.4026C294.538 84.1051 293.97 84.684 293.278 85.0706C288.2 88.0229 284.123 108.435 281.054 119.721C277.705 132.032 284.164 129.376 284.164 129.376Z" fill="#577590"/>
<path d="M306.291 194.191L307.248 199.502C307.248 199.502 312.271 206.744 310.836 212.779C310.836 212.779 312.032 220.745 316.338 222.917C320.644 225.09 317.056 230.159 312.989 229.918C308.922 229.677 305.095 230.159 304.617 228.952C304.138 227.745 301.268 215.917 301.268 215.917L300.482 229.759L298.09 230L298.876 213.986C298.876 213.986 296.962 210.365 299.593 204.33L298.929 195.067C298.929 195.067 305.573 196.605 306.291 194.191Z" fill="#2F2E41"/>
<path opacity="0.1" d="M306.353 132.041C306.935 132.307 307.483 132.643 307.985 133.041C308.112 130.76 308.844 116.964 307.966 117.186L306.353 132.041Z" fill="black"/>
<path d="M302.012 16.684C302.012 16.684 301.901 16.0589 297.55 17.7057C293.198 19.3524 290.589 31.5047 292.765 38.6407C293.642 41.5164 292.929 43.5898 291.765 45.0406C287.396 50.4846 289.116 58.6613 295.479 61.4608C295.659 61.5399 295.842 61.618 296.029 61.6952L298.749 63.3419C298.749 63.3419 295.282 58.7383 297.017 52.8494C298.523 47.8319 298.709 42.5048 297.557 37.3927C297.358 36.5303 297.131 35.6413 296.875 34.7341C294.699 27.0493 295.757 27.9368 303.372 20.2519C303.372 20.2519 307.724 23.5454 311.531 25.1922C315.339 26.839 318.603 28.4857 315.883 33.9749C313.163 39.464 306.636 44.4043 310.988 51.5402C315.339 58.6761 315.883 55.9316 315.339 58.6762L314.795 61.4207L318.059 58.1272L315.883 62.5186C315.883 62.5186 322.954 62.5186 325.13 57.0294L326.218 58.1272C326.218 58.1272 330.57 50.4424 322.41 43.3065C322.41 43.3065 319.691 41.6597 323.498 36.1705C327.306 30.6814 324.382 18.8796 319.486 16.684C314.591 14.4883 302.012 16.684 302.012 16.684Z" fill="#2F2E41"/>
<path d="M308.012 13.2783C310.807 13.2783 313.074 10.9912 313.074 8.1698C313.074 5.34843 310.807 3.06126 308.012 3.06126C305.216 3.06126 302.949 5.34843 302.949 8.1698C302.949 10.9912 305.216 13.2783 308.012 13.2783Z" fill="#2F2E41"/>
<path d="M301.937 5.44522C301.937 4.17884 302.403 2.95763 303.245 2.01848C304.087 1.07932 305.244 0.489168 306.493 0.362483C306.326 0.34579 306.158 0.336685 305.987 0.336685C304.644 0.336685 303.356 0.874904 302.407 1.83294C301.458 2.79098 300.924 4.09036 300.924 5.44522C300.924 6.80009 301.458 8.09947 302.407 9.0575C303.356 10.0155 304.644 10.5538 305.987 10.5538C306.158 10.5538 306.326 10.5447 306.493 10.528C305.244 10.4013 304.087 9.81112 303.245 8.87196C302.403 7.93281 301.937 6.7116 301.937 5.44522Z" fill="#2F2E41"/>
<path d="M155.257 220.269C158.457 220.269 161.051 217.651 161.051 214.422C161.051 211.193 158.457 208.575 155.257 208.575C152.057 208.575 149.463 211.193 149.463 214.422C149.463 217.651 152.057 220.269 155.257 220.269Z" fill="#F1F1F1"/>
<path d="M191.306 195.537C194.506 195.537 197.1 192.919 197.1 189.69C197.1 186.461 194.506 183.843 191.306 183.843C188.106 183.843 185.511 186.461 185.511 189.69C185.511 192.919 188.106 195.537 191.306 195.537Z" fill="#F1F1F1"/>
<path d="M146.725 172.508C149.925 172.508 152.519 169.89 152.519 166.661C152.519 163.432 149.925 160.814 146.725 160.814C143.525 160.814 140.931 163.432 140.931 166.661C140.931 169.89 143.525 172.508 146.725 172.508Z" fill="#F1F1F1"/>
</g>
<path d="M246.76 36.193V57.6823H231.977V36.194V36.1945C232.267 36.3663 232.603 36.4648 232.962 36.4648C233.15 36.4648 233.328 36.4294 233.499 36.3794C233.688 37.2938 234.478 37.9803 235.426 37.9803C235.515 37.9803 235.6 37.9652 235.685 37.9535C236.023 38.5694 236.659 38.9907 237.397 38.9907C237.99 38.9907 238.515 38.7174 238.876 38.2935C239.237 38.7174 239.762 38.9907 240.354 38.9907C240.377 38.9907 240.399 38.9846 240.422 38.9836C240.493 39.2685 240.623 39.5262 240.798 39.7484C240.525 40.0955 240.354 40.531 240.354 41.0114C240.354 42.1273 241.237 43.0321 242.325 43.0321C243.414 43.0321 244.296 42.1273 244.296 41.0114C244.296 40.531 244.126 40.0955 243.852 39.7484C244.126 39.4014 244.296 38.9659 244.296 38.4855C244.296 38.2339 244.246 37.996 244.164 37.7737C244.705 37.5054 245.111 36.9977 245.239 36.3794C245.41 36.4294 245.587 36.4648 245.775 36.4648C246.134 36.4648 246.471 36.3663 246.761 36.194L246.76 36.193Z" fill="#F2C351"/>
<path d="M246.76 60.7134H231.977C231.16 60.7134 230.498 60.0349 230.498 59.1978C230.498 58.3607 231.16 57.6823 231.977 57.6823H246.76C247.577 57.6823 248.239 58.3607 248.239 59.1978C248.239 60.0349 247.577 60.7134 246.76 60.7134Z" fill="#D5CEC2"/>
<path d="M246.76 51.1149H249.224C249.769 51.1149 250.21 50.6628 250.21 50.1046V41.5165C250.21 40.9583 249.769 40.5062 249.224 40.5062H246.76V38.4855H249.224C250.857 38.4855 252.181 39.8424 252.181 41.5165V50.1046C252.181 51.7788 250.857 53.1357 249.224 53.1357H246.76V51.1149Z" fill="#D5CEC2"/>
<path d="M246.123 32.4592C245.826 32.1773 245.445 31.9934 245.021 31.9419C244.683 31.3276 244.048 30.9078 243.311 30.9078C242.97 30.9078 242.654 31.0048 242.375 31.1609C242.013 30.7022 241.467 30.4026 240.847 30.4026C240.486 30.4026 240.152 30.5092 239.861 30.683C239.571 30.5092 239.236 30.4026 238.876 30.4026C238.407 30.4026 237.982 30.5774 237.644 30.8578C237.305 30.5774 236.88 30.4026 236.412 30.4026C235.674 30.4026 235.037 30.8239 234.7 31.4398C234.614 31.4281 234.529 31.413 234.441 31.413C233.704 31.413 233.068 31.8328 232.73 32.4471C231.753 32.5663 230.991 33.4094 230.991 34.444C230.991 35.56 231.874 36.4648 232.962 36.4648C233.15 36.4648 233.328 36.4294 233.499 36.3794C233.688 37.2938 234.478 37.9803 235.426 37.9803C235.515 37.9803 235.6 37.9651 235.685 37.9535C236.023 38.5693 236.659 38.9907 237.397 38.9907C237.99 38.9907 238.515 38.7174 238.876 38.2935C239.237 38.7174 239.762 38.9907 240.354 38.9907C240.377 38.9907 240.399 38.9846 240.422 38.9836C240.493 39.2685 240.623 39.5261 240.798 39.7484C240.525 40.0955 240.354 40.5309 240.354 41.0114C240.354 42.1273 241.237 43.0321 242.325 43.0321C243.414 43.0321 244.296 42.1273 244.296 41.0114C244.296 40.5309 244.126 40.0955 243.852 39.7484C244.126 39.4014 244.296 38.9659 244.296 38.4855C244.296 38.2339 244.246 37.996 244.164 37.7737C244.705 37.5054 245.111 36.9977 245.239 36.3794C245.41 36.4294 245.587 36.4648 245.775 36.4648C246.863 36.4648 247.746 35.56 247.746 34.444C247.746 33.4504 247.045 32.6284 246.123 32.4592Z" fill="#E7E4DD"/>
<path d="M234.933 55.6616C234.389 55.6616 233.948 55.2094 233.948 54.6512V45.558C233.948 44.9998 234.389 44.5476 234.933 44.5476C235.478 44.5476 235.919 44.9998 235.919 45.558V54.6512C235.919 55.2094 235.478 55.6616 234.933 55.6616Z" fill="#F7D881"/>
<path d="M239.369 55.6616C238.824 55.6616 238.383 55.2094 238.383 54.6512V45.558C238.383 44.9998 238.824 44.5476 239.369 44.5476C239.913 44.5476 240.354 44.9998 240.354 45.558V54.6512C240.354 55.2094 239.913 55.6616 239.369 55.6616Z" fill="#F7D881"/>
<path d="M243.804 55.6616C243.259 55.6616 242.818 55.2094 242.818 54.6512V45.558C242.818 44.9998 243.259 44.5476 243.804 44.5476C244.348 44.5476 244.789 44.9998 244.789 45.558V54.6512C244.789 55.2094 244.348 55.6616 243.804 55.6616Z" fill="#F7D881"/>
</svg>
